# xmcd
#
# Track frame offsets: 
#        150
#        14824
#        30205
#        44602
#        66834
#        80823
#        98422
#        114262
#        129661
#        144662
#        164611
#        179805
#        191685
#
# Disc length: 2687 seconds
#
# Revision: 0
# Processed by: cddbd v1.5.2PL0 Copyright (c) Steve Scherf et al.
# Submitted via: ExactAudioCopy v0.99pb4
#
DISCID=ba0a7d0d
DTITLE=The Sidekicks - Pickin On Carrie Underwood's Carnival Ride
DYEAR=2008
DGENRE=Bluegrass
TTITLE0=Flat On The Floor
TTITLE1=All-American Girl
TTITLE2=So Small
TTITLE3=Just A Dream
TTITLE4=Get Out of This Town
TTITLE5=Crazy Dreams
TTITLE6=I Know You Won't
TTITLE7=Last Name
TTITLE8=You Won't Find This
TTITLE9=I Told You So
TTITLE10=More Boys I Meet
TTITLE11=Twisted
TTITLE12=Wheel of The World
EXTD=
EXTT0=
EXTT1=
EXTT2=
EXTT3=
EXTT4=
EXTT5=
EXTT6=
EXTT7=
EXTT8=
EXTT9=
EXTT10=
EXTT11=
EXTT12=
PLAYORDER=
